<svg xmlns:dc="http://purl.org/dc/elements/1.1/" xmlns:cc="http://creativecommons.org/ns#" xmlns:rdf="http://www.w3.org/1999/02/22-rdf-syntax-ns#" xmlns:svg="http://www.w3.org/2000/svg" xmlns="http://www.w3.org/2000/svg" xmlns:sodipodi="http://sodipodi.sourceforge.net/DTD/sodipodi-0.dtd" xmlns:inkscape="http://www.inkscape.org/namespaces/inkscape" version="1.1" x="0px" y="0px" viewBox="0 0 100 125"><g transform="translate(0,-952.36218)"><path style="text-indent:0;text-transform:none;direction:ltr;block-progression:tb;baseline-shift:baseline;color:#000000;enable-background:accumulate;" d="m 49.999998,953.36215 c -27.05008,0 -48.9999995,21.95 -48.9999995,49.00005 0,27.0501 21.9499195,49 48.9999995,49 27.05008,0 49.000003,-21.9499 49.000003,-49 0,-27.05005 -21.949922,-49.00005 -49.000002,-49.00005 z m 0,2 c 0.886661,0 1.78174,0.045 2.65625,0.094 l -3.96875,6.7812 c -7.56345,0.166 -14.88056,3.638 -20.65625,7.3126 -4.28125,-1.4818 -5.75584,-1.9597 -8.59375,-2.8438 8.3125,-6.638 19.3125,-11.638 30.5625,-11.344 z m -1.0625,8.8438 14.21875,12.3125 -3.75,17.9063 -17.9375,5.65625 -12.9375,-11.09385 c -0.0785,-5.725 -0.16595,-11.4825 -0.25,-17.2187 5.77867,-3.787 13.28029,-7.4613 20.65625,-7.5625 z m 29.656251,0.875 c 6.374782,4.8937 11.462452,11.3827 14.656252,18.875 -3.4033,-4.519 -8.65176,-9.4447 -13.09375,-11.4375 z m 0.5,9.1562 c 4.406592,1.8693 11.017452,8.3252 14.000002,13 l -2.71875,17.21885 -16.781252,5.5938 -12.25,-15.09385 3.84375,-18.25 z m -52.218751,15.9063 13.375,11.50005 0,20 -13.9375,8.3437 -14.1875,-11.3437 c -2.2349995,-6.6183 -4.7270495,-14.5663 -3.0312495,-21.68755 z m -22.9062495,2.8125 3.21875,3.5312 c -1.8728,7.78155 0.73609,15.94965 2.9687495,22.56265 l -2.4999995,3.7187 c -2.98054,-6.1741 -4.65625,-13.0875 -4.65625,-20.4063 0,-3.22495 0.3509,-6.36445 0.96875,-9.40625 z m 86.5312525,13.56255 2.6875,14.4063 c -2.31626,5.3879 -5.60674,10.252 -9.65625,14.375 l -15.656252,2.7812 -4.46875,-10.75 10.5,-15.2812 z m -49.093752,16.75 20.125,4.7813 4.5,10.7812 c 0.099,0.2372 -8.28125,5.2372 -14.78125,10.5 -0.41356,0.011 -0.83383,0.031 -1.25,0.031 -5.02187,0 -9.83884,-0.7934 -14.375,-2.25 0.54746,-0.9983 0.40394,-1.5954 0.125,-2.0438 l -8.12505,-13.5499 z" fill="#000000" fill-opacity="1" stroke="none" marker="none" visibility="visible" display="inline" overflow="visible"/></g><text x="0" y="115" fill="#000000" font-size="5px" font-weight="bold" font-family="'Helvetica Neue', Helvetica, Arial-Unicode, Arial, Sans-serif">Created by zidney</text><text x="0" y="120" fill="#000000" font-size="5px" font-weight="bold" font-family="'Helvetica Neue', Helvetica, Arial-Unicode, Arial, Sans-serif">from the Noun Project</text></svg>
